<svg width="280" height="246" viewBox="0 0 280 246" fill="none" xmlns="http://www.w3.org/2000/svg">
<path opacity="0.1" d="M247 172.5C258.046 158.655 264.74 137.693 255.605 122.795C247.693 109.892 235.963 99.3318 232.271 84.1054C228.923 70.2975 233.33 58.9589 230.289 45.1515C224.237 17.6818 191.722 2.6746 163.979 22.1211C151.649 30.7651 141.637 43.8392 128.332 50.3188C109.67 59.4066 91.7662 49.1916 72.8583 53.7461C56.3607 57.7216 41.4957 67.8797 31.6166 83.9168C23.847 96.5288 19.6732 112.064 19.5224 127.704C19.3912 141.352 24.8183 153.891 32.6615 164.03L247 172.5Z" fill="#2A8DCF"/>
<path d="M84.4425 116.272L22.5001 143C27 179.5 94.0671 194.017 147 194C199.218 196.826 238.443 186.777 255.256 167.511C264.455 156.97 261.74 141.607 257.382 128.313L84.4425 116.272Z" fill="#E1F2FF"/>
<path d="M203.505 199.385C184.296 205.364 164.017 208.53 145.299 208.394C122.738 208.23 99.9777 203.547 79.4758 194.851C60.8907 186.969 45.6537 176.39 36.5703 165.065C30.3061 157.686 22.7872 145.661 22.5566 130.298C22.3263 114.924 26.2426 99.638 33.5833 87.2588C42.6492 71.9712 57.0268 60.9348 74.0859 56.2035C82.2536 53.934 90.3967 54.3874 98.2702 54.8253C108.417 55.3887 118.91 55.973 129.263 50.574C137.031 46.5237 143.714 40.1452 150.177 33.9779C154.604 29.7524 159.183 25.3838 164.093 21.7708C176.799 12.4187 191.865 9.64904 205.429 14.1691C218.224 18.4334 227.803 28.6182 231.052 41.414C232.708 47.9342 232.556 54.0372 232.411 59.9397C232.259 66.0427 232.104 72.3533 233.968 79.0785C236.686 88.8873 243.111 96.6499 249.323 104.155C252.34 107.801 255.46 111.571 258.137 115.544C267.699 129.742 271.185 152.75 260.471 166.68C252.451 177.02 235.851 187.506 214.924 195.449C211.174 196.871 207.361 198.185 203.505 199.385ZM72.162 57.1615C56.0955 62.162 42.5723 72.8498 33.9192 87.4408C26.6131 99.7621 22.7157 114.977 22.9448 130.284C23.1743 145.538 30.646 157.487 36.875 164.825C45.9224 176.106 61.1075 186.646 79.6354 194.505C100.09 203.181 122.799 207.853 145.308 208.016C167.735 208.18 192.41 203.595 214.787 195.097C235.646 187.179 252.183 176.741 260.16 166.456C270.772 152.661 267.299 129.843 257.809 115.754C255.144 111.797 252.029 108.034 249.018 104.394C242.78 96.8584 236.331 89.0654 233.592 79.1816C231.713 72.4049 231.87 66.0658 232.022 59.9358C232.168 54.0588 232.319 47.9812 230.675 41.5098C227.457 28.8355 217.97 18.748 205.297 14.5247C191.858 10.046 176.924 12.7962 164.323 22.0687C159.434 25.6676 154.864 30.0266 150.447 34.2429C143.963 40.4293 137.261 46.8265 129.442 50.9041C118.992 56.3511 108.443 55.7663 98.2418 55.1997C90.3992 54.7636 82.2909 54.3121 74.1861 56.5634C73.5074 56.7529 72.832 56.9529 72.162 57.1615Z" fill="#C6E5FD"/>
<path d="M77.2857 59.0047C76.7537 57.0808 75.9991 55.2537 75.0344 53.5537C72.5153 54.4691 69.5874 53.9359 67.5663 51.9165C65.5451 49.897 65.0131 46.9697 65.9287 44.4498C64.2296 43.4853 62.4022 42.7308 60.4779 42.2002C59.3422 44.6246 56.8972 46.3158 54.0423 46.3158C51.1873 46.3158 48.7424 44.6246 47.6067 42.2002C45.6824 42.7321 43.8549 43.4866 42.1558 44.4498C43.0714 46.9684 42.5381 49.8958 40.5183 51.9165C38.4984 53.9372 35.5705 54.4691 33.0501 53.5537C32.0854 55.2525 31.3308 57.0808 30.7988 59.0047C33.2249 60.1402 34.9153 62.5847 34.9153 65.4391C34.9153 68.2935 33.2249 70.7379 30.7988 71.8734C31.3308 73.7973 32.0854 75.6244 33.0501 77.3244C35.5693 76.409 38.4972 76.9422 40.5183 78.9616C42.5394 80.9824 43.0714 83.9084 42.1558 86.4284C43.8549 87.3928 45.6824 88.1473 47.6067 88.6779C48.7424 86.2536 51.1873 84.5623 54.0423 84.5623C56.8972 84.5623 59.3422 86.2536 60.4779 88.6779C62.4022 88.146 64.2296 87.3916 65.9287 86.4284C65.0131 83.9097 65.5464 80.9824 67.5663 78.9616C69.5874 76.9422 72.514 76.409 75.0344 77.3244C75.9991 75.6256 76.7537 73.7973 77.2857 71.8734C74.8596 70.7379 73.1693 68.2935 73.1693 65.4391C73.1693 62.5847 74.8609 60.1402 77.2857 59.0047ZM54.0423 73.8765C49.3813 73.8765 45.6031 70.0992 45.6031 65.4391C45.6031 60.779 49.3813 57.0003 54.0423 57.0003C58.7033 57.0003 62.4814 60.7777 62.4814 65.4391C62.4814 70.1004 58.7033 73.8765 54.0423 73.8765Z" fill="#70BEED"/>
<path d="M223.31 140.081C222.778 138.157 222.024 136.33 221.059 134.63C218.54 135.545 215.612 135.012 213.591 132.993C211.57 130.973 211.038 128.046 211.953 125.526C210.254 124.561 208.427 123.807 206.502 123.276C205.367 125.701 202.922 127.392 200.067 127.392C197.212 127.392 194.767 125.701 193.631 123.276C191.707 123.808 189.879 124.563 188.18 125.526C189.096 128.045 188.563 130.972 186.543 132.993C184.522 135.012 181.595 135.545 179.075 134.63C178.11 136.329 177.355 138.157 176.823 140.081C179.249 141.216 180.94 143.661 180.94 146.515C180.94 149.37 179.249 151.814 176.823 152.95C177.355 154.873 178.11 156.701 179.075 158.401C181.594 157.485 184.522 158.018 186.543 160.038C188.564 162.059 189.096 164.985 188.18 167.505C189.879 168.469 191.707 169.223 193.631 169.754C194.767 167.33 197.212 165.638 200.067 165.638C202.922 165.638 205.367 167.33 206.502 169.754C208.427 169.222 210.254 168.468 211.953 167.505C211.038 164.986 211.571 162.059 213.591 160.038C215.612 158.018 218.538 157.485 221.059 158.401C222.024 156.702 222.778 154.873 223.31 152.95C220.884 151.814 219.194 149.37 219.194 146.515C219.194 143.661 220.884 141.216 223.31 140.081ZM200.067 154.954C195.406 154.954 191.628 151.177 191.628 146.515C191.628 141.854 195.406 138.078 200.067 138.078C204.728 138.078 208.506 141.855 208.506 146.515C208.506 151.175 204.728 154.954 200.067 154.954Z" fill="#70BEED"/>
<path d="M141.575 119.498L137.474 178.204L137.427 178.875H114.128C112 178.875 110.374 176.986 110.682 174.882L118.993 119.498H141.575Z" fill="#60B3E5"/>
<path d="M141.997 119.498L137.895 178.204H115.336C113.208 178.204 111.582 176.308 111.898 174.203L120.1 119.498H141.997Z" fill="#92D0F6"/>
<path d="M77.3832 176.395C75.591 176.395 74.1396 177.847 74.1396 179.638V181.352H101.922V176.394H77.3832V176.395Z" fill="#92D0F6"/>
<path d="M190.68 176.396H100.961V181.354H194.549V180.263C194.549 178.127 192.817 176.396 190.68 176.396Z" fill="#77C3F0"/>
<path d="M194.8 159.694H67.2273C65.1634 159.694 63.463 158.194 63.2216 156.154L62.1714 147.36L53.1701 71.9254C52.8657 69.3779 54.9233 67.0742 57.5041 67.0742H185.076C187.141 67.0742 188.84 68.5744 189.082 70.6139L198.241 147.361L199.136 154.843C199.439 157.389 197.38 159.694 194.8 159.694Z" fill="#60B3E5"/>
<path d="M196.352 157.876H68.7776C66.7137 157.876 65.0133 156.375 64.7718 154.336L63.7217 145.541L54.7204 70.1071C54.416 67.5595 56.4736 65.2559 59.0544 65.2559H186.626C188.691 65.2559 190.39 66.756 190.632 68.7956L199.792 145.543L200.686 153.024C200.989 155.571 198.93 157.876 196.352 157.876Z" fill="#92D0F6"/>
<path d="M199.792 145.541H63.7217L54.7204 70.1071C54.416 67.5595 56.4736 65.2559 59.0544 65.2559H186.626C188.691 65.2559 190.39 66.756 190.632 68.7956L199.792 145.541Z" fill="#04569B"/>
<path d="M194.672 141.132L186.392 69.6665H59.3042L67.5849 141.132H194.672Z" fill="white"/>
<path d="M134.067 153.529C135.123 152.432 135.018 150.617 133.832 149.477C132.646 148.336 130.829 148.301 129.773 149.399C128.716 150.496 128.822 152.31 130.007 153.451C131.193 154.592 133.011 154.627 134.067 153.529Z" fill="white"/>
<path d="M68.9036 135.166L62.6201 80.853H185.893L192.176 135.166H68.9036Z" fill="#F2F9FF"/>
<path d="M158.981 75.1265H70.9068C70.0441 75.1265 69.4253 75.8256 69.5246 76.6882C69.624 77.5508 70.405 78.25 71.2678 78.25H159.34C160.203 78.25 160.822 77.5508 160.723 76.6882C160.623 75.8256 159.843 75.1265 158.981 75.1265Z" fill="#B9E0FB"/>
<path d="M167.201 77.828C167.76 77.2356 167.674 76.2468 167.01 75.6195C166.345 74.9922 165.353 74.9639 164.793 75.5563C164.234 76.1487 164.32 77.1374 164.984 77.7648C165.649 78.3921 166.641 78.4204 167.201 77.828Z" fill="#B9E0FB"/>
<path d="M172.432 77.828C172.991 77.2356 172.905 76.2469 172.241 75.6195C171.576 74.9922 170.584 74.9639 170.024 75.5563C169.465 76.1487 169.551 77.1374 170.215 77.7648C170.88 78.3921 171.872 78.4204 172.432 77.828Z" fill="#B9E0FB"/>
<path d="M177.663 77.828C178.222 77.2356 178.136 76.2469 177.472 75.6195C176.807 74.9922 175.815 74.9639 175.255 75.5563C174.696 76.1487 174.782 77.1374 175.446 77.7648C176.111 78.3921 177.103 78.4204 177.663 77.828Z" fill="#B9E0FB"/>
<path d="M141.015 129.819H118.828C117.88 129.819 117.022 129.05 116.912 128.102C116.803 127.154 117.482 126.386 118.43 126.386H140.617C141.566 126.386 142.424 127.154 142.533 128.102C142.642 129.05 141.963 129.819 141.015 129.819Z" fill="white"/>
<path d="M120.596 128.291L120.568 128.049H121.196L121.262 128.623C121.208 128.682 121.127 128.734 121.015 128.779C120.904 128.824 120.79 128.847 120.671 128.847C120.52 128.847 120.386 128.816 120.266 128.752C120.147 128.689 120.051 128.598 119.982 128.48C119.913 128.362 119.869 128.235 119.853 128.096C119.835 127.945 119.851 127.812 119.9 127.695C119.949 127.578 120.031 127.489 120.146 127.426C120.232 127.378 120.346 127.354 120.483 127.354C120.661 127.354 120.806 127.392 120.915 127.468C121.025 127.543 121.101 127.646 121.145 127.78L120.863 127.834C120.834 127.763 120.79 127.707 120.728 127.666C120.668 127.625 120.595 127.605 120.51 127.605C120.383 127.605 120.286 127.645 120.221 127.725C120.156 127.806 120.132 127.925 120.151 128.085C120.171 128.256 120.224 128.384 120.309 128.47C120.395 128.555 120.499 128.598 120.624 128.598C120.684 128.598 120.744 128.586 120.803 128.562C120.861 128.538 120.912 128.509 120.951 128.475L120.929 128.291H120.596Z" fill="#B9E0FB"/>
<path d="M121.513 128.11C121.496 127.963 121.505 127.839 121.536 127.74C121.56 127.667 121.598 127.6 121.648 127.543C121.698 127.483 121.755 127.441 121.82 127.413C121.906 127.375 122.008 127.356 122.125 127.356C122.337 127.356 122.514 127.423 122.658 127.554C122.801 127.686 122.885 127.869 122.913 128.103C122.94 128.336 122.898 128.518 122.786 128.65C122.674 128.782 122.513 128.848 122.301 128.848C122.086 128.848 121.908 128.782 121.766 128.652C121.624 128.52 121.54 128.34 121.513 128.11ZM121.813 128.1C121.832 128.263 121.883 128.386 121.969 128.471C122.054 128.555 122.155 128.598 122.27 128.598C122.386 128.598 122.477 128.555 122.542 128.472C122.606 128.389 122.629 128.263 122.61 128.096C122.591 127.931 122.541 127.807 122.459 127.726C122.377 127.646 122.277 127.604 122.156 127.604C122.035 127.604 121.943 127.646 121.881 127.727C121.815 127.809 121.794 127.934 121.813 128.1Z" fill="#B9E0FB"/>
<path d="M124.309 128.823L124.171 127.624H123.743L123.716 127.38H124.863L124.891 127.624H124.463L124.601 128.823H124.309Z" fill="#B9E0FB"/>
<path d="M125.138 128.11C125.121 127.963 125.129 127.839 125.162 127.74C125.186 127.667 125.223 127.6 125.274 127.543C125.324 127.483 125.38 127.441 125.446 127.413C125.531 127.375 125.633 127.356 125.75 127.356C125.963 127.356 126.14 127.423 126.283 127.554C126.427 127.686 126.511 127.869 126.539 128.103C126.565 128.336 126.524 128.518 126.412 128.65C126.3 128.782 126.139 128.848 125.926 128.848C125.711 128.848 125.534 128.782 125.392 128.652C125.248 128.52 125.164 128.34 125.138 128.11ZM125.437 128.1C125.456 128.263 125.507 128.386 125.593 128.471C125.679 128.555 125.779 128.598 125.895 128.598C126.011 128.598 126.101 128.555 126.167 128.472C126.231 128.389 126.253 128.263 126.234 128.096C126.216 127.931 126.165 127.807 126.084 127.726C126.002 127.646 125.901 127.604 125.78 127.604C125.66 127.604 125.568 127.646 125.505 127.727C125.441 127.809 125.418 127.934 125.437 128.1Z" fill="#B9E0FB"/>
<path d="M127.611 128.823L127.443 127.38H127.735L127.801 127.949H128.372L128.306 127.38H128.598L128.765 128.823H128.473L128.4 128.191H127.829L127.902 128.823H127.611Z" fill="#B9E0FB"/>
<path d="M129.024 128.11C129.006 127.963 129.015 127.839 129.047 127.74C129.071 127.667 129.108 127.6 129.159 127.543C129.209 127.483 129.266 127.441 129.331 127.413C129.416 127.375 129.518 127.356 129.635 127.356C129.848 127.356 130.025 127.423 130.169 127.554C130.312 127.686 130.396 127.869 130.424 128.103C130.45 128.336 130.409 128.518 130.297 128.65C130.185 128.782 130.024 128.848 129.811 128.848C129.596 128.848 129.419 128.782 129.277 128.652C129.135 128.52 129.05 128.34 129.024 128.11ZM129.323 128.1C129.342 128.263 129.394 128.386 129.479 128.471C129.565 128.555 129.665 128.598 129.781 128.598C129.897 128.598 129.987 128.555 130.053 128.472C130.117 128.389 130.14 128.263 130.121 128.096C130.102 127.931 130.052 127.807 129.97 127.726C129.888 127.646 129.788 127.604 129.667 127.604C129.547 127.604 129.454 127.646 129.391 127.727C129.326 127.809 129.303 127.934 129.323 128.1Z" fill="#B9E0FB"/>
<path d="M130.83 128.823L130.663 127.38H131.1L131.476 128.365L131.62 127.38H132.057L132.224 128.823H131.953L131.823 127.687L131.668 128.823H131.388L130.971 127.687L131.102 128.823H130.83Z" fill="#B9E0FB"/>
<path d="M132.614 128.823L132.446 127.38H133.517L133.544 127.624H132.766L132.802 127.944H133.527L133.554 128.186H132.83L132.875 128.579H133.681L133.709 128.821H132.614V128.823Z" fill="#B9E0FB"/>
<path d="M134.058 128.823L133.891 127.38H134.359C134.536 127.38 134.652 127.388 134.707 127.402C134.793 127.423 134.867 127.471 134.931 127.543C134.995 127.616 135.034 127.709 135.047 127.823C135.057 127.911 135.049 127.986 135.024 128.047C134.999 128.107 134.964 128.155 134.919 128.189C134.873 128.224 134.826 128.247 134.775 128.258C134.707 128.272 134.607 128.278 134.476 128.278H134.286L134.349 128.823H134.058ZM134.212 127.623L134.26 128.032H134.419C134.534 128.032 134.611 128.024 134.647 128.009C134.685 127.994 134.712 127.97 134.73 127.939C134.749 127.906 134.755 127.87 134.75 127.827C134.744 127.774 134.724 127.731 134.688 127.697C134.653 127.663 134.612 127.642 134.564 127.633C134.529 127.627 134.458 127.623 134.353 127.623H134.212Z" fill="#B9E0FB"/>
<path d="M136.656 128.823H136.339L136.175 128.494H135.599L135.519 128.823H135.209L135.604 127.38H135.913L136.656 128.823ZM136.053 128.252L135.793 127.716L135.66 128.252H136.053Z" fill="#B9E0FB"/>
<path d="M137.521 128.291L137.493 128.049H138.121L138.187 128.623C138.133 128.682 138.051 128.734 137.939 128.779C137.829 128.824 137.714 128.847 137.596 128.847C137.445 128.847 137.311 128.816 137.191 128.752C137.072 128.689 136.976 128.598 136.907 128.48C136.838 128.362 136.794 128.235 136.777 128.096C136.76 127.945 136.776 127.812 136.825 127.695C136.874 127.578 136.956 127.489 137.07 127.426C137.157 127.378 137.27 127.354 137.407 127.354C137.586 127.354 137.731 127.392 137.84 127.468C137.95 127.543 138.026 127.646 138.07 127.78L137.787 127.834C137.758 127.763 137.714 127.707 137.653 127.666C137.592 127.625 137.519 127.605 137.435 127.605C137.308 127.605 137.211 127.645 137.146 127.725C137.08 127.806 137.057 127.925 137.075 128.085C137.096 128.256 137.148 128.384 137.234 128.47C137.319 128.555 137.425 128.598 137.548 128.598C137.609 128.598 137.669 128.586 137.728 128.562C137.786 128.538 137.836 128.509 137.875 128.475L137.854 128.291H137.521Z" fill="#B9E0FB"/>
<path d="M138.58 128.823L138.413 127.38H139.483L139.511 127.624H138.732L138.769 127.944H139.493L139.521 128.186H138.796L138.841 128.579H139.648L139.675 128.821H138.58V128.823Z" fill="#B9E0FB"/>
<path d="M150.247 120.952H107.543L107.496 120.54H150.199L150.247 120.952Z" fill="white"/>
<path d="M149.029 123.444H109.34L109.292 123.033H148.982L149.029 123.444Z" fill="white"/>
<path d="M104.324 106.601H98.4849L99.108 111.883H105.663L105.592 114.685H96.2227L94.0786 96.498H103.409L103.744 99.3485H97.6304L98.1524 103.776H103.991L104.324 106.601Z" fill="#002646"/>
<path d="M110.298 106.93L111.212 114.686H107.972L105.828 96.4985H111.398C114.704 96.4985 116.782 98.2228 117.166 101.468C117.476 104.098 116.201 105.233 115.295 105.609C116.782 106.268 117.59 107.466 117.907 110.151L117.992 110.877C118.236 112.944 118.424 113.715 118.687 114.686H115.536C115.172 113.853 114.955 112.413 114.77 110.846L114.692 110.184C114.406 107.753 113.75 106.931 111.695 106.931H110.298V106.93ZM109.987 104.292H111.515C113.482 104.292 114.151 103.445 113.934 101.608C113.749 100.042 112.894 99.1347 111.227 99.1347H109.378L109.987 104.292Z" fill="#002646"/>
<path d="M123.527 106.93L124.44 114.686H121.201L119.057 96.4985H124.627C127.933 96.4985 130.01 98.2228 130.394 101.468C130.705 104.098 129.429 105.233 128.523 105.609C130.01 106.268 130.818 107.466 131.135 110.151L131.221 110.877C131.465 112.944 131.653 113.715 131.915 114.686H128.764C128.401 113.853 128.183 112.413 127.998 110.846L127.921 110.184C127.635 107.753 126.979 106.931 124.923 106.931H123.527V106.93ZM123.216 104.292H124.743C126.71 104.292 127.38 103.445 127.162 101.608C126.977 100.042 126.123 99.1347 124.456 99.1347H122.607L123.216 104.292Z" fill="#002646"/>
<path d="M144.694 105.454C145.478 112.104 144.012 114.999 139.818 114.999C135.901 114.999 133.656 112.147 132.862 105.415C132.088 98.8534 134 96.2095 137.752 96.2095C141.715 96.2095 143.949 99.1376 144.694 105.454ZM136.198 105.385C136.706 109.701 137.663 112.267 139.573 112.267C141.583 112.267 141.877 109.89 141.347 105.392C140.848 101.166 139.978 98.9652 138.002 98.9652C136.055 98.9652 135.72 101.333 136.198 105.385Z" fill="#002646"/>
<path d="M150.658 106.93L151.571 114.686H148.332L146.188 96.4985H151.758C155.064 96.4985 157.141 98.2228 157.525 101.468C157.836 104.098 156.56 105.233 155.654 105.609C157.141 106.268 157.949 107.466 158.266 110.151L158.351 110.877C158.595 112.944 158.783 113.715 159.046 114.686H155.895C155.531 113.853 155.314 112.413 155.129 110.846L155.051 110.184C154.766 107.753 154.11 106.931 152.054 106.931H150.658V106.93ZM150.347 104.292H151.874C153.841 104.292 154.511 103.445 154.293 101.608C154.108 100.042 153.254 99.1347 151.587 99.1347H149.738L150.347 104.292Z" fill="#002646"/>
<path d="M214.358 170.766L214.239 174.239C214.222 174.757 214.244 175.217 213.766 175.419L211.189 176.684C209.844 177.248 210.247 178.73 211.706 178.73H218.44V176.679L218.587 170.767H214.358V170.766Z" fill="#FFC5BD"/>
<path d="M217.752 176.517C217.858 176.458 218.099 176.319 218.177 176.287C218.446 176.178 218.715 176.442 218.715 176.73V180.153C218.715 180.441 218.481 180.675 218.193 180.675H205.511C205.132 180.675 204.827 180.369 204.827 179.991C204.827 179.945 204.835 179.891 204.844 179.846C204.89 179.638 205.033 179.459 205.24 179.368L212.794 175.708C213.213 175.5 213.535 175.661 213.614 176.033C213.746 176.646 214.279 177.019 215.536 177.004C216.45 176.994 217.246 176.805 217.752 176.517Z" fill="#193368"/>
<path d="M218.716 179.847V180.153C218.716 180.44 218.482 180.674 218.194 180.674H205.512C205.133 180.674 204.828 180.369 204.828 179.99C204.828 179.945 204.836 179.891 204.845 179.846H218.716V179.847Z" fill="#193972"/>
<path d="M218.427 123.997L224.616 120.94L230.902 125.513L222.307 148.758L219.369 174.452H213.294L213.253 147.996L218.427 123.997Z" fill="#002646"/>
<path d="M237.476 170.446L238.3 173.522C238.444 174.024 238.388 174.446 238 174.791L235.966 176.816C234.873 177.783 235.731 179.056 237.113 178.588L243.489 176.424L242.705 174.08L241.482 169.087L237.476 170.446Z" fill="#FFC5BD"/>
<path d="M231.011 179.845C231.064 179.635 231.203 179.451 231.412 179.365L235.186 177.33L237.168 175.374C237.5 175.042 237.859 175.094 238.05 175.426C238.137 175.575 238.251 175.688 238.391 175.776C238.619 175.924 238.924 175.986 239.325 175.933C239.569 175.907 239.867 175.838 240.191 175.723C241.047 175.418 241.736 174.981 242.13 174.552C242.209 174.457 242.392 174.247 242.453 174.194C242.681 174.002 243.012 174.168 243.109 174.438L243.764 176.359L244.209 177.678C244.305 177.958 244.156 178.254 243.886 178.342L238.17 180.284C237.409 180.542 236.611 180.674 235.809 180.674H231.684C231.299 180.674 230.993 180.368 230.993 179.983C230.993 179.941 231.002 179.889 231.011 179.845Z" fill="#193368"/>
<path d="M231.01 179.845H236.504C236.759 179.845 237.013 179.803 237.256 179.72L244.113 177.39L244.208 177.678C244.304 177.957 244.155 178.254 243.885 178.342L237.385 180.549C237.144 180.631 236.89 180.673 236.633 180.673H231.682C231.297 180.673 230.991 180.368 230.991 179.983C230.992 179.94 231.001 179.889 231.01 179.845Z" fill="#193972"/>
<path d="M243.287 172.395L237.693 148.205L237.808 127.372L230.516 123.025L223.942 124.787L228.811 150.543L237.288 173.962L243.287 172.395Z" fill="#002646"/>
<path d="M207.681 115.93L206.316 112.971C207.804 112.263 208.46 112.018 210.425 110.999C212.617 109.861 214.501 108.822 215.52 108.201L217.662 112.846C214.226 114.4 210.987 115.348 207.681 115.93Z" fill="#EAA196"/>
<path d="M216.538 113.105C217.95 113.105 219.096 111.959 219.096 110.547C219.096 109.134 217.95 107.989 216.538 107.989C215.125 107.989 213.979 109.134 213.979 110.547C213.979 111.959 215.125 113.105 216.538 113.105Z" fill="#EAA196"/>
<path d="M206.946 116.103C207.845 116.103 208.574 115.374 208.574 114.475C208.574 113.575 207.845 112.846 206.946 112.846C206.046 112.846 205.317 113.575 205.317 114.475C205.317 115.374 206.046 116.103 206.946 116.103Z" fill="#EAA196"/>
<path d="M220.741 96.0355C219.786 97.7104 220.317 99.8267 221.917 100.86C221.973 100.897 222.032 100.933 222.091 100.967C223.827 101.956 226.035 101.352 227.024 99.6167C228.013 97.8814 227.409 95.6733 225.673 94.685C223.939 93.6966 221.73 94.3002 220.741 96.0355Z" fill="#EAA196"/>
<path d="M216.546 113.085C217.972 113.085 219.128 111.929 219.128 110.503C219.128 109.078 217.972 107.922 216.546 107.922C215.12 107.922 213.964 109.078 213.964 110.503C213.964 111.929 215.12 113.085 216.546 113.085Z" fill="#EAA196"/>
<path d="M227.023 99.6175C224.378 104.324 222.107 107.433 218.833 111.727L218.789 111.785L214.303 109.228C217.007 104.556 218.683 101.108 220.712 96.1042L220.74 96.0376L227.023 99.6175Z" fill="#EAA196"/>
<path d="M219.853 96.9647C221.136 94.4008 223.533 93.3999 225.685 94.5404C227.245 95.3678 227.803 97.596 227.613 99.1175C227.556 99.5702 227.106 100.61 226.92 101.016C226.269 102.433 223.232 107.762 221.694 110.092L215.25 106.963C216.843 103.703 218.518 99.6318 219.853 96.9647Z" fill="#63B6D3"/>
<path d="M218.045 124.872L237.932 127.777C238.531 123.164 238.989 115.227 239.299 111.009C239.61 106.776 239.62 103.728 239.328 101.278C238.836 97.1515 235.852 93.1529 231.118 91.8652L225.714 92.0677C224.218 92.631 221.597 94.526 220.664 95.7155L220.99 112.238C220.587 117.53 219.327 119.64 218.045 124.872Z" fill="#2A8DCF"/>
<path d="M230.998 97.5301C230.187 99.3458 230.946 101.463 232.692 102.362C232.755 102.395 232.818 102.425 232.882 102.454C234.762 103.293 236.968 102.449 237.807 100.569C238.646 98.6895 237.802 96.4839 235.922 95.6452C234.043 94.8065 231.838 95.6502 230.998 97.5301Z" fill="#EAA196"/>
<path d="M229.89 116.42C231.052 115.519 231.263 113.846 230.362 112.685C229.461 111.523 227.788 111.312 226.626 112.213C225.464 113.114 225.253 114.786 226.154 115.948C227.056 117.11 228.728 117.321 229.89 116.42Z" fill="#EAA196"/>
<path d="M237.808 100.569C236 105.087 233.264 111.504 230.721 115.351L230.682 115.413L225.82 113.243C227.84 108.288 229.683 103.038 230.976 97.6005L230.998 97.5288L237.808 100.569Z" fill="#EAA196"/>
<path d="M230.495 97.1353C231.295 95.1573 233.719 94.2733 235.909 95.1586C237.606 95.8451 238.543 97.3993 238.562 98.9825C238.567 99.4527 238.46 99.9067 238.325 100.348C237.856 101.886 237.481 103.414 236.95 104.94C236.208 107.074 235.022 109.895 234.068 111.944L226.929 109.374C228.169 105.856 229.069 101.754 230.153 98.2418L230.495 97.1353Z" fill="#2A8DCF"/>
<path d="M220.907 109.667C220.918 109.668 220.93 109.67 220.941 109.67C221.062 109.667 221.157 109.568 221.155 109.447L221.021 102.403C221.02 102.282 220.917 102.188 220.799 102.189C220.678 102.191 220.582 102.291 220.585 102.412L220.718 109.456C220.721 109.564 220.803 109.652 220.907 109.667Z" fill="#37A6BF"/>
<path d="M234.171 112.215L234.26 112.051C235.227 110.266 237.248 105.327 237.954 102.42C237.982 102.303 237.894 102.191 237.793 102.156C237.676 102.128 237.558 102.2 237.529 102.317C236.875 105.017 234.954 109.778 233.963 111.677L233.245 111.418C233.143 111.374 233.006 111.436 232.966 111.55C232.926 111.663 232.984 111.789 233.098 111.829L234.171 112.215Z" fill="#37A6BF"/>
<path d="M227.172 109.694C227.281 109.725 227.397 109.666 227.437 109.558C227.478 109.444 227.42 109.319 227.306 109.279L227.2 109.24L229.102 102.791C229.136 102.675 229.071 102.554 228.955 102.519C228.85 102.505 228.719 102.55 228.684 102.666L226.665 109.509L227.159 109.688C227.162 109.691 227.167 109.693 227.172 109.694Z" fill="#37A6BF"/>
<path d="M206.858 116.107C207.742 116.107 208.459 115.391 208.459 114.506C208.459 113.622 207.742 112.906 206.858 112.906C205.974 112.906 205.257 113.622 205.257 114.506C205.257 115.391 205.974 116.107 206.858 116.107Z" fill="#EAA196"/>
<path d="M201.048 118.51C201.135 118.548 201.245 118.569 201.334 118.568C201.499 118.564 201.655 118.512 201.792 118.466C202.128 118.354 202.463 118.24 202.788 118.096C202.898 118.047 203 117.992 203.102 117.937C203.268 117.846 203.424 117.762 203.604 117.713C204.23 117.543 204.952 117.328 205.58 116.934C205.741 116.834 205.896 116.721 206.05 116.607C206.352 116.387 206.7 116.181 207.053 116.096C207.297 116.037 207.502 115.902 207.7 115.772L206.791 112.908C206.42 112.947 205.638 112.814 205.218 112.561C205.033 112.45 204.852 112.321 204.648 112.234C204.557 112.195 204.462 112.164 204.361 112.141C204.045 112.069 203.724 112.033 203.403 111.995L202.929 111.94C202.803 111.925 202.676 111.916 202.55 111.907C202.447 111.9 202.344 111.892 202.242 111.882C202.204 111.878 202.16 111.869 202.115 111.861C201.959 111.83 201.764 111.793 201.628 111.888C201.551 111.942 201.504 112.035 201.497 112.145C201.484 112.4 201.684 112.605 201.889 112.694C202.061 112.768 202.239 112.785 202.413 112.801L202.514 112.811C202.583 112.819 202.76 112.843 202.902 112.903C203.125 112.999 203.09 113.103 203.075 113.147C202.897 113.669 201.861 113.937 201.339 114.006C200.582 114.106 199.703 114.213 198.834 114.206C198.596 114.209 198.332 114.23 198.176 114.427C198.078 114.549 198.079 114.657 198.097 114.726C198.126 114.842 198.23 114.946 198.381 115.01C198.449 115.039 198.52 115.058 198.588 115.065C199.392 115.146 200.206 115.176 201.014 115.155C200.769 115.263 200.506 115.325 200.232 115.389C199.988 115.446 199.762 115.488 199.537 115.53C199.344 115.566 199.151 115.601 198.959 115.643L198.826 115.666C198.678 115.688 198.51 115.715 198.405 115.791C198.322 115.852 198.275 115.947 198.274 116.059C198.273 116.2 198.344 116.343 198.454 116.426C198.49 116.454 198.53 116.477 198.576 116.495C198.728 116.561 198.899 116.566 199.061 116.565C199.732 116.562 200.401 116.463 201.048 116.366C201.192 116.345 201.335 116.323 201.479 116.303C201.017 116.685 200.401 116.885 199.801 117.08L199.695 117.114C199.288 117.247 199.312 117.47 199.34 117.559C199.377 117.67 199.471 117.74 199.524 117.773C199.556 117.793 199.588 117.81 199.622 117.823C199.867 117.928 200.152 117.895 200.398 117.851C200.948 117.75 201.484 117.588 201.995 117.369C201.725 117.589 201.402 117.76 201.126 117.906C201.05 117.947 200.954 117.998 200.892 118.089C200.828 118.184 200.832 118.263 200.847 118.312C200.869 118.395 200.939 118.463 201.048 118.51Z" fill="#EAA196"/>
<path d="M205.665 114.447C205.702 114.423 205.724 114.379 205.714 114.333C205.702 114.274 205.645 114.236 205.586 114.247C204.807 114.406 204.012 114.085 203.561 113.434C203.527 113.385 203.45 113.376 203.408 113.406C203.358 113.441 203.347 113.508 203.381 113.558C203.883 114.283 204.765 114.636 205.628 114.461C205.641 114.46 205.653 114.455 205.665 114.447Z" fill="#CC7972"/>
<path d="M226.746 94.9879C228.484 94.9879 230.577 94.2787 231.837 93.2614L232.173 92.991C232.267 92.9156 232.281 92.7773 232.206 92.6842C232.13 92.5899 231.993 92.5761 231.899 92.6515L231.563 92.9219C230.173 94.0435 227.673 94.7615 225.951 94.4924C224.934 94.3327 224.399 93.9178 224.365 93.2576C224.359 93.1369 224.267 93.0439 224.136 93.0514C224.016 93.0577 223.924 93.1595 223.93 93.2803C223.956 93.7832 224.244 94.666 225.884 94.9237C226.154 94.9665 226.444 94.9879 226.746 94.9879Z" fill="#37A6BF"/>
<path d="M231.15 92.4134C229.885 93.4344 227.596 94.0895 226.051 93.8469C225.801 93.8079 225.041 93.6884 225.017 93.2244C224.991 92.7164 225.712 92.0688 225.712 92.0688L225.92 84.6587L230.952 84.1406L231.023 87.2981L231.15 92.4134Z" fill="#EAA196"/>
<path d="M231.024 87.299C229.995 89.6304 228.075 91.3883 225.713 92.0698L225.922 84.6597L230.954 84.1416L231.024 87.299Z" fill="#CC7972"/>
<path d="M234.354 82.1005C234.177 81.5095 233.683 80.833 232.802 80.5626C232.737 79.1404 232.178 78.186 230.881 77.507C230.23 77.1662 229.202 77.0292 228.486 77.2052C227.963 77.3347 227.487 77.6893 227.241 78.1533C226.795 77.6617 226.248 77.2643 225.556 77.1134C224.323 76.8431 222.935 77.1511 222.154 77.9194C221.421 78.6412 221.242 79.9615 222.028 80.628C221.134 81.1096 220.684 82.2664 221.025 83.212C221.365 84.1576 222.569 84.8015 223.571 84.6204L231.289 88.4128C232.451 87.2912 233.742 85.283 234.252 83.876C234.424 83.3956 234.499 82.5883 234.354 82.1005Z" fill="#193368"/>
<path d="M232.794 84.166C232.426 86.6922 230.957 89.1203 228.326 90.364C226.911 91.0317 224.847 91.2178 223.959 89.9553C223.168 88.8299 222.968 87.3461 222.99 85.9591C223.016 84.4929 223.156 83.0293 223.437 81.5908C223.834 79.5562 226.043 78.173 228.835 78.5842C231.977 79.0469 233.175 81.548 232.794 84.166Z" fill="#EAA196"/>
<path d="M233.056 84.2066C232.812 85.8828 232.125 87.3201 231.174 88.5624L230.592 88.4807C230.707 87.7627 230.75 87.0032 230.558 86.6838L229.015 86.1947L229.313 84.1463C228.898 83.847 228.538 83.1604 228.486 82.4902L228.466 82.5053C226.851 82.8084 224.781 82.7191 223.064 82.2035C223.097 81.9785 223.139 81.7559 223.179 81.5409C223.622 79.2938 226.064 77.9106 228.865 78.318C231.871 78.7657 233.512 81.0693 233.056 84.2066Z" fill="#193368"/>
<path d="M231.069 86.8396C231.373 86.1779 231.143 85.4215 230.554 85.1502C229.964 84.8789 229.239 85.1954 228.935 85.8571C228.63 86.5188 228.861 87.2751 229.45 87.5465C230.039 87.8178 230.764 87.5013 231.069 86.8396Z" fill="#EAA196"/>
<path d="M229.336 86.4567C229.333 86.4567 229.328 86.4554 229.324 86.4542C229.265 86.4416 229.228 86.3838 229.241 86.3247C229.265 86.2127 229.309 86.1059 229.37 86.009C229.582 85.6783 229.979 85.501 230.327 85.5966C230.387 85.6117 230.444 85.6356 230.498 85.6683C230.607 85.7324 230.695 85.8242 230.754 85.9348C230.781 85.9877 230.763 86.0543 230.709 86.082C230.656 86.1096 230.589 86.0908 230.561 86.0379C230.52 85.9612 230.462 85.9009 230.388 85.8569C230.351 85.8355 230.312 85.8192 230.271 85.8078C230.01 85.7374 229.717 85.8745 229.554 86.1272C229.506 86.2027 229.472 86.2844 229.453 86.3712C229.442 86.4252 229.39 86.4617 229.336 86.4567Z" fill="#CC7972"/>
<path d="M223.286 85.2527C223.098 85.1798 222.887 85.2741 222.815 85.4614C222.742 85.6488 222.837 85.8601 223.024 85.9317C223.211 86.0047 223.423 85.9104 223.494 85.723C223.566 85.5356 223.474 85.3244 223.286 85.2527Z" fill="#193368"/>
<path d="M225.434 85.4773C225.247 85.4044 225.035 85.4987 224.964 85.6861C224.891 85.8734 224.985 86.0847 225.172 86.1563C225.36 86.2293 225.571 86.135 225.643 85.9476C225.715 85.7602 225.621 85.549 225.434 85.4773Z" fill="#193368"/>
<path d="M226.705 84.5114C226.695 84.4335 226.602 84.3819 226.513 84.3606C226.099 84.26 225.676 84.27 225.258 84.3228C225.111 84.3417 224.714 84.358 224.757 84.558C224.786 84.6875 225.006 84.8007 225.151 84.7994C225.474 84.7981 225.797 84.7893 226.119 84.7717C226.302 84.7604 226.739 84.7667 226.705 84.5114Z" fill="#193368"/>
<path d="M221.909 84.0113C221.936 83.9371 222.037 83.9057 222.128 83.9032C222.554 83.8893 222.966 83.9862 223.364 84.1245C223.504 84.1735 223.889 84.2703 223.806 84.4564C223.752 84.5772 223.513 84.6425 223.371 84.6111C223.055 84.5432 222.74 84.4678 222.429 84.3848C222.252 84.337 221.824 84.254 221.909 84.0113Z" fill="#193368"/>
<path d="M223.647 87.6982C223.633 87.6957 223.619 87.6906 223.605 87.6818C223.405 87.5523 223.285 87.3964 223.248 87.2204C223.215 87.0607 223.253 86.8972 223.363 86.7325C223.423 86.6394 223.512 86.5262 223.612 86.4005C223.732 86.2471 223.869 86.0736 223.989 85.895C224.022 85.8447 224.09 85.8309 224.14 85.8648C224.189 85.8975 224.204 85.9654 224.17 86.0157C224.047 86.2018 223.907 86.3791 223.783 86.535C223.687 86.6558 223.602 86.7639 223.544 86.8519C223.468 86.9664 223.441 87.0745 223.461 87.1738C223.485 87.2895 223.575 87.4014 223.724 87.497C223.774 87.5297 223.789 87.5976 223.755 87.6479C223.732 87.6869 223.69 87.7045 223.647 87.6982Z" fill="#CC7972"/>
<path d="M223.946 88.3517C223.949 88.3529 223.951 88.3542 223.954 88.3542C224.29 88.4535 225.037 88.3994 225.379 88.1215C225.425 88.0838 225.433 88.0147 225.395 87.9681C225.358 87.9216 225.29 87.9141 225.242 87.9518C224.965 88.1769 224.302 88.2297 224.017 88.1454C223.959 88.1278 223.899 88.1618 223.881 88.2196C223.865 88.2737 223.894 88.3315 223.946 88.3517Z" fill="#CC7972"/>
<path d="M178.41 105.187C180.552 105.444 182.476 105.358 183.519 104.866C184.563 104.374 184.483 103.591 183.529 102.772C184.971 102.496 186.647 102.332 188.502 102.286C190.327 103.019 192.66 103.582 194.892 103.754C197.123 103.925 198.738 103.666 199.455 103.129C200.535 103.305 201.635 103.507 202.746 103.738C203.875 103.973 204.978 104.231 206.053 104.505C206.491 105.283 207.864 106.166 209.977 106.9C212.09 107.635 214.453 108.051 216.42 108.109C218.099 108.892 219.567 109.712 220.777 110.541C219.571 110.909 219.181 111.595 219.937 112.462C220.692 113.33 222.418 114.177 224.483 114.797C224.565 115.164 224.576 115.524 224.503 115.872C224.429 116.226 224.273 116.555 224.047 116.862C221.905 116.604 219.981 116.691 218.938 117.183C217.894 117.674 217.973 118.458 218.928 119.276C217.485 119.553 215.81 119.716 213.955 119.763C212.13 119.03 209.798 118.466 207.566 118.294C205.335 118.123 203.72 118.382 203.003 118.919C201.923 118.743 200.823 118.542 199.712 118.311C198.583 118.075 197.481 117.818 196.405 117.543C195.968 116.765 194.594 115.882 192.481 115.148C190.368 114.414 188.005 113.997 186.038 113.94C184.359 113.156 182.891 112.336 181.681 111.508C182.887 111.139 183.277 110.454 182.521 109.586C181.766 108.719 180.04 107.871 177.975 107.251C177.893 106.884 177.882 106.524 177.955 106.176C178.028 105.823 178.185 105.493 178.41 105.187Z" fill="#70BEED"/>
<path d="M183.226 100.174L179.372 99.3716L177.94 106.245L183.056 107.239L188.97 111.051L206.961 116.773L217.267 116.035L222.121 115.376L224.491 115.941L225.922 109.066L222.221 108.296L217.507 108.638L209.503 109.9L200.619 109.624L191.766 105.417L186.299 102.412L183.226 100.174Z" fill="#70BEED"/>
<path d="M215.854 110.434L220.777 110.542L222.135 104.023L217.395 103.036L209.556 101.041L202.313 99.0162L190.971 97.9072L184.889 96.2549L183.53 102.772L188.078 104.011L200.537 108.595L212.181 109.668L215.854 110.434Z" fill="#7FC8F4"/>
<path d="M183.159 104.414L181.682 111.504C182.889 112.333 184.357 113.158 186.04 113.939L187.537 106.751C186.097 106.104 184.811 105.435 183.712 104.763C183.523 104.649 183.337 104.527 183.159 104.414Z" fill="#7FC8F4"/>
<path d="M197.919 110.264L196.402 117.542C197.476 117.819 198.578 118.078 199.709 118.313C200.822 118.544 201.919 118.744 203.001 118.923L204.519 111.64C203.437 111.461 202.341 111.256 201.228 111.025C200.099 110.789 198.996 110.536 197.919 110.264Z" fill="#7FC8F4"/>
<path d="M215.453 112.571L213.954 119.764C215.81 119.714 217.483 119.55 218.927 119.272L220.404 112.182C220.203 112.217 220.002 112.246 219.789 112.277C218.503 112.452 217.043 112.555 215.453 112.571Z" fill="#7FC8F4"/>
<path d="M179.369 99.3672L177.951 106.176C177.878 106.527 177.892 106.883 177.973 107.254L179.406 100.377C179.319 100.035 179.302 99.6954 179.369 99.3672Z" fill="#7FC8F4"/>
<path d="M225.479 109.985L224.047 116.862C224.269 116.555 224.427 116.228 224.501 115.873L225.92 109.063C225.85 109.397 225.698 109.701 225.479 109.985Z" fill="#7FC8F4"/>
<path d="M195.998 102.825L195.146 106.914L208.429 109.68L209.281 105.591L195.998 102.825Z" fill="#70BEED"/>
<path d="M179.815 98.4491C181.955 98.7194 183.873 98.6628 184.907 98.2165C185.94 97.7688 185.852 97.0344 184.889 96.2548C186.324 96.0147 187.993 95.8839 189.842 95.8638C191.67 96.5755 194.005 97.1338 196.233 97.3237C198.461 97.5135 200.068 97.2922 200.776 96.7981C201.856 96.9766 202.954 97.1803 204.067 97.4117C205.196 97.6468 206.299 97.9021 207.375 98.1737C207.822 98.9093 209.204 99.7543 211.319 100.47C213.436 101.187 215.798 101.607 217.761 101.687C219.445 102.443 220.921 103.23 222.138 104.023C220.941 104.352 220.561 104.989 221.326 105.811C222.09 106.634 223.823 107.451 225.89 108.058C225.975 108.403 225.992 108.74 225.924 109.066C225.855 109.395 225.702 109.702 225.481 109.987C223.342 109.717 221.424 109.774 220.39 110.22C219.356 110.668 219.444 111.402 220.407 112.182C218.972 112.422 217.303 112.553 215.455 112.573C213.626 111.861 211.292 111.303 209.063 111.113C206.836 110.923 205.228 111.144 204.52 111.638C203.44 111.46 202.342 111.256 201.229 111.025C200.101 110.79 198.998 110.534 197.921 110.263C197.473 109.527 196.092 108.682 193.977 107.967C191.86 107.25 189.498 106.83 187.535 106.749C185.851 105.994 184.376 105.207 183.158 104.413C184.356 104.085 184.735 103.447 183.971 102.625C183.206 101.803 181.473 100.985 179.407 100.378C179.321 100.033 179.305 99.6965 179.373 99.3708C179.442 99.0401 179.594 98.7345 179.815 98.4491ZM201.956 107.539C208.228 108.846 213.622 108.418 214.005 106.583C214.387 104.75 209.611 102.204 203.341 100.897C197.068 99.5908 191.674 100.018 191.292 101.853C190.909 103.686 195.684 106.233 201.956 107.539Z" fill="#C1D9ED"/>
<path d="M209.28 105.59C209.503 104.518 206.711 103.029 203.043 102.265C199.375 101.501 196.22 101.752 195.996 102.825C195.773 103.897 198.565 105.386 202.233 106.15C205.901 106.914 209.056 106.663 209.28 105.59Z" fill="#C6E5FD"/>
<path d="M215.447 121.417C216.377 121.417 217.13 120.664 217.13 119.735C217.13 118.806 216.377 118.052 215.447 118.052C214.518 118.052 213.765 118.806 213.765 119.735C213.765 120.664 214.518 121.417 215.447 121.417Z" fill="#EAA196"/>
<path d="M215.228 118.154C214.928 118.186 214.818 118.15 214.341 117.758C213.866 117.363 213.539 116.852 212.982 116.589C212.623 116.42 212.25 116.29 211.876 116.161C211.704 116.102 211.143 115.894 210.893 115.814C210.7 115.752 210.181 115.538 209.981 115.62C209.898 115.655 209.841 115.736 209.816 115.824C209.746 116.065 209.804 116.387 210.016 116.566C210.209 116.728 210.355 116.781 210.593 116.889C210.732 116.952 210.983 117.041 211.141 117.187C211.231 117.267 211.29 117.36 211.281 117.467C211.28 117.511 211.269 117.56 211.235 117.608C211.061 117.856 210.707 117.892 210.35 117.97C209.696 118.112 209.031 118.188 208.38 118.354C208.254 118.386 208.108 118.416 208.004 118.337C208.055 119.057 208.4 119.728 209.011 120.125C209.162 120.223 209.328 120.306 209.445 120.442C209.558 120.576 209.615 120.747 209.698 120.901C210.025 121.512 210.734 121.807 211.406 121.978C212.122 122.16 212.891 122.249 213.622 122.101C214.349 121.952 214.922 121.511 215.672 121.405C215.709 120.858 215.231 118.154 215.228 118.154Z" fill="#EAA196"/>
<path d="M216.166 121.272L214.847 118.191C216.711 117.394 219.367 116.018 221.964 114.59C224.175 113.375 226.158 112.384 227.289 111.9L229.36 116.736C224.766 118.523 220.583 119.886 216.194 121.262L216.166 121.272Z" fill="#EAA196"/>
<path d="M228.272 116.972C229.725 116.972 230.903 115.794 230.903 114.341C230.903 112.888 229.725 111.71 228.272 111.71C226.819 111.71 225.641 112.888 225.641 114.341C225.641 115.794 226.819 116.972 228.272 116.972Z" fill="#EAA196"/>
<path d="M215.453 121.429C216.378 121.429 217.128 120.679 217.128 119.754C217.128 118.829 216.378 118.079 215.453 118.079C214.528 118.079 213.778 118.829 213.778 119.754C213.778 120.679 214.528 121.429 215.453 121.429Z" fill="#EAA196"/>
<path d="M184.201 36.6748L162.974 76.781H205.428L184.201 36.6748Z" fill="#0968B8"/>
<path d="M206.61 76.1554L185.382 36.0491C185.151 35.6103 184.698 35.3374 184.201 35.3374C183.705 35.3374 183.252 35.6103 183.019 36.0491L161.793 76.1554C161.576 76.5665 161.589 77.0708 161.83 77.4707C162.07 77.8693 162.509 78.1182 162.975 78.1182H205.429C205.894 78.1182 206.334 77.8705 206.575 77.4707C206.814 77.0708 206.829 76.5678 206.61 76.1554ZM165.195 75.4436L184.201 39.5322L203.208 75.4436H165.195Z" fill="#70BEED"/>
<path d="M183.176 66.95L182.228 57.2928V52.8276H186.174V57.2928L185.24 66.95H183.176ZM182.383 71.8566V68.2087H186.032V71.8566H182.383Z" fill="#70BEED"/>
</svg>
